<svg xmlns="http://www.w3.org/2000/svg" xmlns:xlink="http://www.w3.org/1999/xlink" contentStyleType="text/css" data-diagram-type="CLASS" height="525px" preserveAspectRatio="none" style="width:749px;height:525px;background:#FFFFFF;" version="1.1" viewBox="0 0 749 525" width="749px" zoomAndPan="magnify"><?plantuml $version$?><defs/><g><g class="title" data-source-line="4"><text fill="#000000" font-family="'Segoe UI'" font-size="14" font-weight="700" lengthAdjust="spacing" textLength="222.9541" x="259.9287" y="25.1074">Elektrikertjenesten - Klassemodell</text></g><!--cluster ex--><g class="cluster" data-qualified-name="ex" data-source-line="33" id="ent0001"><path d="M35.9058,43.6211 L99.2378,43.6211 A6,6 0 0 1 103.2378,47.6211 L110.2378,65.582 L719.9058,65.582 A4,4 0 0 1 723.9058,69.582 L723.9058,331.6211 A4,4 0 0 1 719.9058,335.6211 L35.9058,335.6211 A4,4 0 0 1 31.9058,331.6211 L31.9058,47.6211 A4,4 0 0 1 35.9058,43.6211" fill="#FBFBFC" style="stroke:#B9C2CC;stroke-width:1.5;"/><line style="stroke:#B9C2CC;stroke-width:1.5;" x1="31.9058" x2="110.2378" y1="65.582" y2="65.582"/><text fill="#56616B" font-family="'Segoe UI'" font-size="12" lengthAdjust="spacing" textLength="65.332" x="35.9058" y="58.5703">org.example</text></g><!--cluster Eksterne biblioteker / JDK--><g class="cluster" data-qualified-name="Eksterne biblioteker . JDK" data-source-line="58" id="ent0006"><path d="M128.9058,371.6211 L262.4214,371.6211 A6,6 0 0 1 266.4214,375.6211 L273.4214,393.582 L694.9058,393.582 A4,4 0 0 1 698.9058,397.582 L698.9058,459.6211 A4,4 0 0 1 694.9058,463.6211 L128.9058,463.6211 A4,4 0 0 1 124.9058,459.6211 L124.9058,375.6211 A4,4 0 0 1 128.9058,371.6211" fill="#FBFBFC" style="stroke:#B9C2CC;stroke-width:1.5;"/><line style="stroke:#B9C2CC;stroke-width:1.5;" x1="124.9058" x2="273.4214" y1="393.582" y2="393.582"/><text fill="#56616B" font-family="'Segoe UI'" font-size="12" lengthAdjust="spacing" textLength="135.5156" x="128.9058" y="386.5703">Eksterne biblioteker / JDK</text></g><!--class Main--><g class="entity" data-qualified-name="ex.Main" data-source-line="35" id="ent0002"><rect fill="#F7FBFF" height="61.9609" rx="4" ry="4" style="stroke:#2C6FBB;stroke-width:1.3;" width="155.748" x="214.9058" y="69.6211"/><rect fill="#D6E6FA" height="30" rx="4" ry="4" style="stroke:#D6E6FA;stroke-width:1.3;" width="155.748" x="214.9058" y="69.6211"/><rect fill="#D6E6FA" height="4" style="stroke:#D6E6FA;stroke-width:1.3;" width="155.748" x="214.9058" y="95.6211"/><rect fill="none" height="61.9609" rx="4" ry="4" style="stroke:#2C6FBB;stroke-width:1.3;" width="155.748" x="214.9058" y="69.6211"/><ellipse cx="275.4907" cy="84.6211" fill="#ADD1B2" rx="10" ry="10" style="stroke:#181818;stroke-width:1;"/><path d="M276.9751,81.8242 Q277.0845,81.668 277.2095,81.5898 Q277.3501,81.5117 277.5063,81.5117 Q277.772,81.5117 277.9282,81.6992 Q278.1001,81.8867 278.1001,82.3086 L278.1001,83.3398 Q278.1001,83.7617 277.9282,83.9492 Q277.772,84.1367 277.5063,84.1367 Q277.2563,84.1367 277.1157,83.9961 Q276.9751,83.8711 276.897,83.4961 Q276.8657,83.2461 276.7407,83.1211 Q276.4907,82.8555 276.0532,82.6992 Q275.6313,82.543 275.1938,82.543 Q274.6626,82.543 274.2095,82.7773 Q273.7563,83.0117 273.4126,83.543 Q273.0688,84.0586 273.0688,84.793 L273.0688,85.5742 Q273.0688,86.4336 273.6938,87.0117 Q274.3345,87.5898 275.4438,87.5898 Q276.1157,87.5898 276.5845,87.418 Q276.8501,87.3086 277.147,86.9961 Q277.3345,86.8086 277.4438,86.7617 Q277.5532,86.6992 277.6782,86.6992 Q277.9282,86.6992 278.1001,86.8867 Q278.2876,87.0586 278.2876,87.3086 Q278.2876,87.5586 278.0376,87.8398 Q277.6782,88.2461 277.1157,88.4805 Q276.3657,88.793 275.4595,88.793 Q274.3813,88.793 273.5376,88.3555 Q272.8345,88.0117 272.3501,87.2461 Q271.8657,86.4805 271.8657,85.5898 L271.8657,84.7773 Q271.8657,83.8398 272.3032,83.0273 Q272.7407,82.2148 273.5063,81.7773 Q274.2876,81.3398 275.147,81.3398 Q275.6782,81.3398 276.1313,81.4648 Q276.5845,81.5742 276.9751,81.8242 Z " fill="#000000"/><text fill="#2B2B2B" font-family="'Segoe UI'" font-size="12" lengthAdjust="spacing" textLength="26.5781" x="294.4907" y="89.5898">Main</text><line style="stroke:#2C6FBB;stroke-width:1.3;" x1="215.9058" x2="369.6538" y1="99.6211" y2="99.6211"/><line style="stroke:#2C6FBB;stroke-width:1.3;" x1="215.9058" x2="369.6538" y1="107.6211" y2="107.6211"/><text fill="#2B2B2B" font-family="'Segoe UI'" font-size="12" lengthAdjust="spacing" text-decoration="underline" textLength="143.748" x="220.9058" y="124.5703">+main(args : String[]) : void</text></g><!--class AzureClient--><g class="entity" data-qualified-name="ex.AzureClient" data-source-line="39" id="ent0003"><rect fill="#F7FBFF" height="61.9609" rx="4" ry="4" style="stroke:#2C6FBB;stroke-width:1.3;" width="175.3477" x="40.4058" y="225.6211"/><rect fill="#D6E6FA" height="30" rx="4" ry="4" style="stroke:#D6E6FA;stroke-width:1.3;" width="175.3477" x="40.4058" y="225.6211"/><rect fill="#D6E6FA" height="4" style="stroke:#D6E6FA;stroke-width:1.3;" width="175.3477" x="40.4058" y="251.6211"/><rect fill="none" height="61.9609" rx="4" ry="4" style="stroke:#2C6FBB;stroke-width:1.3;" width="175.3477" x="40.4058" y="225.6211"/><ellipse cx="93.6899" cy="240.6211" fill="#ADD1B2" rx="10" ry="10" style="stroke:#181818;stroke-width:1;"/><path d="M95.1743,237.8242 Q95.2837,237.668 95.4087,237.5898 Q95.5493,237.5117 95.7056,237.5117 Q95.9712,237.5117 96.1274,237.6992 Q96.2993,237.8867 96.2993,238.3086 L96.2993,239.3398 Q96.2993,239.7617 96.1274,239.9492 Q95.9712,240.1367 95.7056,240.1367 Q95.4556,240.1367 95.3149,239.9961 Q95.1743,239.8711 95.0962,239.4961 Q95.0649,239.2461 94.9399,239.1211 Q94.6899,238.8555 94.2524,238.6992 Q93.8306,238.543 93.3931,238.543 Q92.8618,238.543 92.4087,238.7773 Q91.9556,239.0117 91.6118,239.543 Q91.2681,240.0586 91.2681,240.793 L91.2681,241.5742 Q91.2681,242.4336 91.8931,243.0117 Q92.5337,243.5898 93.6431,243.5898 Q94.3149,243.5898 94.7837,243.418 Q95.0493,243.3086 95.3462,242.9961 Q95.5337,242.8086 95.6431,242.7617 Q95.7524,242.6992 95.8774,242.6992 Q96.1274,242.6992 96.2993,242.8867 Q96.4868,243.0586 96.4868,243.3086 Q96.4868,243.5586 96.2368,243.8398 Q95.8774,244.2461 95.3149,244.4805 Q94.5649,244.793 93.6587,244.793 Q92.5806,244.793 91.7368,244.3555 Q91.0337,244.0117 90.5493,243.2461 Q90.0649,242.4805 90.0649,241.5898 L90.0649,240.7773 Q90.0649,239.8398 90.5024,239.0273 Q90.9399,238.2148 91.7056,237.7773 Q92.4868,237.3398 93.3462,237.3398 Q93.8774,237.3398 94.3306,237.4648 Q94.7837,237.5742 95.1743,237.8242 Z " fill="#000000"/><text fill="#2B2B2B" font-family="'Segoe UI'" font-size="12" lengthAdjust="spacing" textLength="60.7793" x="112.6899" y="245.5898">AzureClient</text><line style="stroke:#2C6FBB;stroke-width:1.3;" x1="41.4058" x2="214.7534" y1="255.6211" y2="255.6211"/><line style="stroke:#2C6FBB;stroke-width:1.3;" x1="41.4058" x2="214.7534" y1="263.6211" y2="263.6211"/><text fill="#2B2B2B" font-family="'Segoe UI'" font-size="12" lengthAdjust="spacing" text-decoration="underline" textLength="163.3477" x="46.4058" y="280.5703">+getConnection() : Connection</text></g><!--class Token--><g class="entity" data-qualified-name="ex.Token" data-source-line="43" id="ent0004"><rect fill="#F7FBFF" height="61.9609" rx="4" ry="4" style="stroke:#2C6FBB;stroke-width:1.3;" width="117.7617" x="233.9058" y="225.6211"/><rect fill="#D6E6FA" height="30" rx="4" ry="4" style="stroke:#D6E6FA;stroke-width:1.3;" width="117.7617" x="233.9058" y="225.6211"/><rect fill="#D6E6FA" height="4" style="stroke:#D6E6FA;stroke-width:1.3;" width="117.7617" x="233.9058" y="251.6211"/><rect fill="none" height="61.9609" rx="4" ry="4" style="stroke:#2C6FBB;stroke-width:1.3;" width="117.7617" x="233.9058" y="225.6211"/><ellipse cx="272.8412" cy="240.6211" fill="#ADD1B2" rx="10" ry="10" style="stroke:#181818;stroke-width:1;"/><path d="M274.3256,237.8242 Q274.435,237.668 274.56,237.5898 Q274.7006,237.5117 274.8568,237.5117 Q275.1225,237.5117 275.2787,237.6992 Q275.4506,237.8867 275.4506,238.3086 L275.4506,239.3398 Q275.4506,239.7617 275.2787,239.9492 Q275.1225,240.1367 274.8568,240.1367 Q274.6068,240.1367 274.4662,239.9961 Q274.3256,239.8711 274.2475,239.4961 Q274.2162,239.2461 274.0912,239.1211 Q273.8412,238.8555 273.4037,238.6992 Q272.9818,238.543 272.5443,238.543 Q272.0131,238.543 271.56,238.7773 Q271.1068,239.0117 270.7631,239.543 Q270.4193,240.0586 270.4193,240.793 L270.4193,241.5742 Q270.4193,242.4336 271.0443,243.0117 Q271.685,243.5898 272.7943,243.5898 Q273.4662,243.5898 273.935,243.418 Q274.2006,243.3086 274.4975,242.9961 Q274.685,242.8086 274.7943,242.7617 Q274.9037,242.6992 275.0287,242.6992 Q275.2787,242.6992 275.4506,242.8867 Q275.6381,243.0586 275.6381,243.3086 Q275.6381,243.5586 275.3881,243.8398 Q275.0287,244.2461 274.4662,244.4805 Q273.7162,244.793 272.81,244.793 Q271.7318,244.793 270.8881,244.3555 Q270.185,244.0117 269.7006,243.2461 Q269.2162,242.4805 269.2162,241.5898 L269.2162,240.7773 Q269.2162,239.8398 269.6537,239.0273 Q270.0912,238.2148 270.8568,237.7773 Q271.6381,237.3398 272.4975,237.3398 Q273.0287,237.3398 273.4818,237.4648 Q273.935,237.5742 274.3256,237.8242 Z " fill="#000000"/><text fill="#2B2B2B" font-family="'Segoe UI'" font-size="12" lengthAdjust="spacing" textLength="32.3496" x="291.3824" y="245.5898">Token</text><line style="stroke:#2C6FBB;stroke-width:1.3;" x1="234.9058" x2="350.6675" y1="255.6211" y2="255.6211"/><line style="stroke:#2C6FBB;stroke-width:1.3;" x1="234.9058" x2="350.6675" y1="263.6211" y2="263.6211"/><text fill="#2B2B2B" font-family="'Segoe UI'" font-size="12" lengthAdjust="spacing" text-decoration="underline" textLength="105.7617" x="239.9058" y="280.5703">~getToken() : String</text></g><!--class ContractingWorksClient--><g class="entity" data-qualified-name="ex.ContractingWorksClient" data-source-line="47" id="ent0005"><rect fill="#F7FBFF" height="141.7656" rx="4" ry="4" style="stroke:#2C6FBB;stroke-width:1.3;" width="345.4453" x="370.4058" y="185.6211"/><rect fill="#D6E6FA" height="30" rx="4" ry="4" style="stroke:#D6E6FA;stroke-width:1.3;" width="345.4453" x="370.4058" y="185.6211"/><rect fill="#D6E6FA" height="4" style="stroke:#D6E6FA;stroke-width:1.3;" width="345.4453" x="370.4058" y="211.6211"/><rect fill="none" height="141.7656" rx="4" ry="4" style="stroke:#2C6FBB;stroke-width:1.3;" width="345.4453" x="370.4058" y="185.6211"/><ellipse cx="476.2222" cy="200.6211" fill="#ADD1B2" rx="10" ry="10" style="stroke:#181818;stroke-width:1;"/><path d="M477.7065,197.8242 Q477.8159,197.668 477.9409,197.5898 Q478.0815,197.5117 478.2378,197.5117 Q478.5034,197.5117 478.6597,197.6992 Q478.8315,197.8867 478.8315,198.3086 L478.8315,199.3398 Q478.8315,199.7617 478.6597,199.9492 Q478.5034,200.1367 478.2378,200.1367 Q477.9878,200.1367 477.8472,199.9961 Q477.7065,199.8711 477.6284,199.4961 Q477.5972,199.2461 477.4722,199.1211 Q477.2222,198.8555 476.7847,198.6992 Q476.3628,198.543 475.9253,198.543 Q475.394,198.543 474.9409,198.7773 Q474.4878,199.0117 474.144,199.543 Q473.8003,200.0586 473.8003,200.793 L473.8003,201.5742 Q473.8003,202.4336 474.4253,203.0117 Q475.0659,203.5898 476.1753,203.5898 Q476.8472,203.5898 477.3159,203.418 Q477.5815,203.3086 477.8784,202.9961 Q478.0659,202.8086 478.1753,202.7617 Q478.2847,202.6992 478.4097,202.6992 Q478.6597,202.6992 478.8315,202.8867 Q479.019,203.0586 479.019,203.3086 Q479.019,203.5586 478.769,203.8398 Q478.4097,204.2461 477.8472,204.4805 Q477.0972,204.793 476.1909,204.793 Q475.1128,204.793 474.269,204.3555 Q473.5659,204.0117 473.0815,203.2461 Q472.5972,202.4805 472.5972,201.5898 L472.5972,200.7773 Q472.5972,199.8398 473.0347,199.0273 Q473.4722,198.2148 474.2378,197.7773 Q475.019,197.3398 475.8784,197.3398 Q476.4097,197.3398 476.8628,197.4648 Q477.3159,197.5742 477.7065,197.8242 Z " fill="#000000"/><text fill="#2B2B2B" font-family="'Segoe UI'" font-size="12" lengthAdjust="spacing" textLength="125.8125" x="495.2222" y="205.5898">ContractingWorksClient</text><line style="stroke:#2C6FBB;stroke-width:1.3;" x1="371.4058" x2="714.8511" y1="215.6211" y2="215.6211"/><text fill="#2B2B2B" font-family="'Segoe UI'" font-size="12" lengthAdjust="spacing" textLength="120.4102" x="376.4058" y="232.5703">-httpClient : HttpClient</text><text fill="#2B2B2B" font-family="'Segoe UI'" font-size="12" lengthAdjust="spacing" textLength="75.4805" x="376.4058" y="248.5313">-token : String</text><text fill="#2B2B2B" font-family="'Segoe UI'" font-size="12" lengthAdjust="spacing" textLength="93.334" x="376.4058" y="264.4922">-endpoint : String</text><text fill="#2B2B2B" font-family="'Segoe UI'" font-size="12" lengthAdjust="spacing" textLength="164.6191" x="376.4058" y="280.4531">-objectMapper : ObjectMapper</text><line style="stroke:#2C6FBB;stroke-width:1;" x1="371.4058" x2="714.8511" y1="287.4648" y2="287.4648"/><text fill="#2B2B2B" font-family="'Segoe UI'" font-size="12" lengthAdjust="spacing" textLength="333.4453" x="376.4058" y="304.4141">+ContractingWorksClient(httpClient : HttpClient, token : String)</text><text fill="#2B2B2B" font-family="'Segoe UI'" font-size="12" lengthAdjust="spacing" textLength="301.4766" x="376.4058" y="320.375">+sendQuery(query : String, variables : Object) : JsonNode</text></g><!--class Connection--><g class="entity" data-qualified-name="Eksterne biblioteker . JDK.Connection" data-source-line="59" id="ent0007"><rect fill="#F7FBFF" height="57.9219" rx="4" ry="4" style="stroke:#2C6FBB;stroke-width:1.3;" width="90.6563" x="133.4058" y="397.6211"/><rect fill="#D6E6FA" height="41.9219" rx="4" ry="4" style="stroke:#D6E6FA;stroke-width:1.3;" width="90.6563" x="133.4058" y="397.6211"/><rect fill="#D6E6FA" height="4" style="stroke:#D6E6FA;stroke-width:1.3;" width="90.6563" x="133.4058" y="435.543"/><rect fill="none" height="57.9219" rx="4" ry="4" style="stroke:#2C6FBB;stroke-width:1.3;" width="90.6563" x="133.4058" y="397.6211"/><ellipse cx="147.4058" cy="418.582" fill="#ADD1B2" rx="10" ry="10" style="stroke:#181818;stroke-width:1;"/><path d="M148.8901,415.7852 Q148.9995,415.6289 149.1245,415.5508 Q149.2651,415.4727 149.4214,415.4727 Q149.687,415.4727 149.8433,415.6602 Q150.0151,415.8477 150.0151,416.2695 L150.0151,417.3008 Q150.0151,417.7227 149.8433,417.9102 Q149.687,418.0977 149.4214,418.0977 Q149.1714,418.0977 149.0308,417.957 Q148.8901,417.832 148.812,417.457 Q148.7808,417.207 148.6558,417.082 Q148.4058,416.8164 147.9683,416.6602 Q147.5464,416.5039 147.1089,416.5039 Q146.5776,416.5039 146.1245,416.7383 Q145.6714,416.9727 145.3276,417.5039 Q144.9839,418.0195 144.9839,418.7539 L144.9839,419.5352 Q144.9839,420.3945 145.6089,420.9727 Q146.2495,421.5508 147.3589,421.5508 Q148.0308,421.5508 148.4995,421.3789 Q148.7651,421.2695 149.062,420.957 Q149.2495,420.7695 149.3589,420.7227 Q149.4683,420.6602 149.5933,420.6602 Q149.8433,420.6602 150.0151,420.8477 Q150.2026,421.0195 150.2026,421.2695 Q150.2026,421.5195 149.9526,421.8008 Q149.5933,422.207 149.0308,422.4414 Q148.2808,422.7539 147.3745,422.7539 Q146.2964,422.7539 145.4526,422.3164 Q144.7495,421.9727 144.2651,421.207 Q143.7808,420.4414 143.7808,419.5508 L143.7808,418.7383 Q143.7808,417.8008 144.2183,416.9883 Q144.6558,416.1758 145.4214,415.7383 Q146.2026,415.3008 147.062,415.3008 Q147.5933,415.3008 148.0464,415.4258 Q148.4995,415.5352 148.8901,415.7852 Z " fill="#000000"/><text fill="#000000" font-family="Segoe UI" font-size="12" font-style="italic" lengthAdjust="spacing" textLength="50.8711" x="165.2983" y="415.5703">&#171;java.sql&#187;</text><text fill="#2B2B2B" font-family="'Segoe UI'" font-size="12" lengthAdjust="spacing" textLength="60.6563" x="160.4058" y="431.5313">Connection</text><line style="stroke:#2C6FBB;stroke-width:1.3;" x1="134.4058" x2="223.062" y1="439.543" y2="439.543"/><line style="stroke:#2C6FBB;stroke-width:1.3;" x1="134.4058" x2="223.062" y1="447.543" y2="447.543"/></g><!--class Dotenv--><g class="entity" data-qualified-name="Eksterne biblioteker . JDK.Dotenv" data-source-line="60" id="ent0008"><rect fill="#F7FBFF" height="57.9219" rx="4" ry="4" style="stroke:#2C6FBB;stroke-width:1.3;" width="99.7754" x="242.9058" y="397.6211"/><rect fill="#D6E6FA" height="41.9219" rx="4" ry="4" style="stroke:#D6E6FA;stroke-width:1.3;" width="99.7754" x="242.9058" y="397.6211"/><rect fill="#D6E6FA" height="4" style="stroke:#D6E6FA;stroke-width:1.3;" width="99.7754" x="242.9058" y="435.543"/><rect fill="none" height="57.9219" rx="4" ry="4" style="stroke:#2C6FBB;stroke-width:1.3;" width="99.7754" x="242.9058" y="397.6211"/><ellipse cx="256.9058" cy="418.582" fill="#ADD1B2" rx="10" ry="10" style="stroke:#181818;stroke-width:1;"/><path d="M258.3901,415.7852 Q258.4995,415.6289 258.6245,415.5508 Q258.7651,415.4727 258.9214,415.4727 Q259.187,415.4727 259.3433,415.6602 Q259.5151,415.8477 259.5151,416.2695 L259.5151,417.3008 Q259.5151,417.7227 259.3433,417.9102 Q259.187,418.0977 258.9214,418.0977 Q258.6714,418.0977 258.5308,417.957 Q258.3901,417.832 258.312,417.457 Q258.2808,417.207 258.1558,417.082 Q257.9058,416.8164 257.4683,416.6602 Q257.0464,416.5039 256.6089,416.5039 Q256.0776,416.5039 255.6245,416.7383 Q255.1714,416.9727 254.8276,417.5039 Q254.4839,418.0195 254.4839,418.7539 L254.4839,419.5352 Q254.4839,420.3945 255.1089,420.9727 Q255.7495,421.5508 256.8589,421.5508 Q257.5308,421.5508 257.9995,421.3789 Q258.2651,421.2695 258.562,420.957 Q258.7495,420.7695 258.8589,420.7227 Q258.9683,420.6602 259.0933,420.6602 Q259.3433,420.6602 259.5151,420.8477 Q259.7026,421.0195 259.7026,421.2695 Q259.7026,421.5195 259.4526,421.8008 Q259.0933,422.207 258.5308,422.4414 Q257.7808,422.7539 256.8745,422.7539 Q255.7964,422.7539 254.9526,422.3164 Q254.2495,421.9727 253.7651,421.207 Q253.2808,420.4414 253.2808,419.5508 L253.2808,418.7383 Q253.2808,417.8008 253.7183,416.9883 Q254.1558,416.1758 254.9214,415.7383 Q255.7026,415.3008 256.562,415.3008 Q257.0933,415.3008 257.5464,415.4258 Q257.9995,415.5352 258.3901,415.7852 Z " fill="#000000"/><text fill="#000000" font-family="Segoe UI" font-size="12" font-style="italic" lengthAdjust="spacing" textLength="73.7754" x="267.9058" y="415.5703">&#171;dotenv-java&#187;</text><text fill="#2B2B2B" font-family="'Segoe UI'" font-size="12" lengthAdjust="spacing" textLength="38.3262" x="285.6304" y="431.5313">Dotenv</text><line style="stroke:#2C6FBB;stroke-width:1.3;" x1="243.9058" x2="341.6812" y1="439.543" y2="439.543"/><line style="stroke:#2C6FBB;stroke-width:1.3;" x1="243.9058" x2="341.6812" y1="447.543" y2="447.543"/></g><!--class HttpClient--><g class="entity" data-qualified-name="Eksterne biblioteker . JDK.HttpClient" data-source-line="61" id="ent0009"><rect fill="#F7FBFF" height="57.9219" rx="4" ry="4" style="stroke:#2C6FBB;stroke-width:1.3;" width="102.5469" x="361.4058" y="397.6211"/><rect fill="#D6E6FA" height="41.9219" rx="4" ry="4" style="stroke:#D6E6FA;stroke-width:1.3;" width="102.5469" x="361.4058" y="397.6211"/><rect fill="#D6E6FA" height="4" style="stroke:#D6E6FA;stroke-width:1.3;" width="102.5469" x="361.4058" y="435.543"/><rect fill="none" height="57.9219" rx="4" ry="4" style="stroke:#2C6FBB;stroke-width:1.3;" width="102.5469" x="361.4058" y="397.6211"/><ellipse cx="375.4058" cy="418.582" fill="#ADD1B2" rx="10" ry="10" style="stroke:#181818;stroke-width:1;"/><path d="M376.8901,415.7852 Q376.9995,415.6289 377.1245,415.5508 Q377.2651,415.4727 377.4214,415.4727 Q377.687,415.4727 377.8433,415.6602 Q378.0151,415.8477 378.0151,416.2695 L378.0151,417.3008 Q378.0151,417.7227 377.8433,417.9102 Q377.687,418.0977 377.4214,418.0977 Q377.1714,418.0977 377.0308,417.957 Q376.8901,417.832 376.812,417.457 Q376.7808,417.207 376.6558,417.082 Q376.4058,416.8164 375.9683,416.6602 Q375.5464,416.5039 375.1089,416.5039 Q374.5776,416.5039 374.1245,416.7383 Q373.6714,416.9727 373.3276,417.5039 Q372.9839,418.0195 372.9839,418.7539 L372.9839,419.5352 Q372.9839,420.3945 373.6089,420.9727 Q374.2495,421.5508 375.3589,421.5508 Q376.0308,421.5508 376.4995,421.3789 Q376.7651,421.2695 377.062,420.957 Q377.2495,420.7695 377.3589,420.7227 Q377.4683,420.6602 377.5933,420.6602 Q377.8433,420.6602 378.0151,420.8477 Q378.2026,421.0195 378.2026,421.2695 Q378.2026,421.5195 377.9526,421.8008 Q377.5933,422.207 377.0308,422.4414 Q376.2808,422.7539 375.3745,422.7539 Q374.2964,422.7539 373.4526,422.3164 Q372.7495,421.9727 372.2651,421.207 Q371.7808,420.4414 371.7808,419.5508 L371.7808,418.7383 Q371.7808,417.8008 372.2183,416.9883 Q372.6558,416.1758 373.4214,415.7383 Q374.2026,415.3008 375.062,415.3008 Q375.5933,415.3008 376.0464,415.4258 Q376.4995,415.5352 376.8901,415.7852 Z " fill="#000000"/><text fill="#000000" font-family="Segoe UI" font-size="12" font-style="italic" lengthAdjust="spacing" textLength="76.5469" x="386.4058" y="415.5703">&#171;java.net.http&#187;</text><text fill="#2B2B2B" font-family="'Segoe UI'" font-size="12" lengthAdjust="spacing" textLength="54.082" x="397.6382" y="431.5313">HttpClient</text><line style="stroke:#2C6FBB;stroke-width:1.3;" x1="362.4058" x2="462.9526" y1="439.543" y2="439.543"/><line style="stroke:#2C6FBB;stroke-width:1.3;" x1="362.4058" x2="462.9526" y1="447.543" y2="447.543"/></g><!--class ObjectMapper--><g class="entity" data-qualified-name="Eksterne biblioteker . JDK.ObjectMapper" data-source-line="62" id="ent0010"><rect fill="#F7FBFF" height="57.9219" rx="4" ry="4" style="stroke:#2C6FBB;stroke-width:1.3;" width="106.3301" x="482.9058" y="397.6211"/><rect fill="#D6E6FA" height="41.9219" rx="4" ry="4" style="stroke:#D6E6FA;stroke-width:1.3;" width="106.3301" x="482.9058" y="397.6211"/><rect fill="#D6E6FA" height="4" style="stroke:#D6E6FA;stroke-width:1.3;" width="106.3301" x="482.9058" y="435.543"/><rect fill="none" height="57.9219" rx="4" ry="4" style="stroke:#2C6FBB;stroke-width:1.3;" width="106.3301" x="482.9058" y="397.6211"/><ellipse cx="496.9058" cy="418.582" fill="#ADD1B2" rx="10" ry="10" style="stroke:#181818;stroke-width:1;"/><path d="M498.3901,415.7852 Q498.4995,415.6289 498.6245,415.5508 Q498.7651,415.4727 498.9214,415.4727 Q499.187,415.4727 499.3433,415.6602 Q499.5151,415.8477 499.5151,416.2695 L499.5151,417.3008 Q499.5151,417.7227 499.3433,417.9102 Q499.187,418.0977 498.9214,418.0977 Q498.6714,418.0977 498.5308,417.957 Q498.3901,417.832 498.312,417.457 Q498.2808,417.207 498.1558,417.082 Q497.9058,416.8164 497.4683,416.6602 Q497.0464,416.5039 496.6089,416.5039 Q496.0776,416.5039 495.6245,416.7383 Q495.1714,416.9727 494.8276,417.5039 Q494.4839,418.0195 494.4839,418.7539 L494.4839,419.5352 Q494.4839,420.3945 495.1089,420.9727 Q495.7495,421.5508 496.8589,421.5508 Q497.5308,421.5508 497.9995,421.3789 Q498.2651,421.2695 498.562,420.957 Q498.7495,420.7695 498.8589,420.7227 Q498.9683,420.6602 499.0933,420.6602 Q499.3433,420.6602 499.5151,420.8477 Q499.7026,421.0195 499.7026,421.2695 Q499.7026,421.5195 499.4526,421.8008 Q499.0933,422.207 498.5308,422.4414 Q497.7808,422.7539 496.8745,422.7539 Q495.7964,422.7539 494.9526,422.3164 Q494.2495,421.9727 493.7651,421.207 Q493.2808,420.4414 493.2808,419.5508 L493.2808,418.7383 Q493.2808,417.8008 493.7183,416.9883 Q494.1558,416.1758 494.9214,415.7383 Q495.7026,415.3008 496.562,415.3008 Q497.0933,415.3008 497.5464,415.4258 Q497.9995,415.5352 498.3901,415.7852 Z " fill="#000000"/><text fill="#000000" font-family="Segoe UI" font-size="12" font-style="italic" lengthAdjust="spacing" textLength="52.0195" x="522.061" y="415.5703">&#171;Jackson&#187;</text><text fill="#2B2B2B" font-family="'Segoe UI'" font-size="12" lengthAdjust="spacing" textLength="76.3301" x="509.9058" y="431.5313">ObjectMapper</text><line style="stroke:#2C6FBB;stroke-width:1.3;" x1="483.9058" x2="588.2358" y1="439.543" y2="439.543"/><line style="stroke:#2C6FBB;stroke-width:1.3;" x1="483.9058" x2="588.2358" y1="447.543" y2="447.543"/></g><!--class JsonNode--><g class="entity" data-qualified-name="Eksterne biblioteker . JDK.JsonNode" data-source-line="63" id="ent0011"><rect fill="#F7FBFF" height="57.9219" rx="4" ry="4" style="stroke:#2C6FBB;stroke-width:1.3;" width="82.5469" x="607.4058" y="397.6211"/><rect fill="#D6E6FA" height="41.9219" rx="4" ry="4" style="stroke:#D6E6FA;stroke-width:1.3;" width="82.5469" x="607.4058" y="397.6211"/><rect fill="#D6E6FA" height="4" style="stroke:#D6E6FA;stroke-width:1.3;" width="82.5469" x="607.4058" y="435.543"/><rect fill="none" height="57.9219" rx="4" ry="4" style="stroke:#2C6FBB;stroke-width:1.3;" width="82.5469" x="607.4058" y="397.6211"/><ellipse cx="621.4058" cy="418.582" fill="#ADD1B2" rx="10" ry="10" style="stroke:#181818;stroke-width:1;"/><path d="M622.8901,415.7852 Q622.9995,415.6289 623.1245,415.5508 Q623.2651,415.4727 623.4214,415.4727 Q623.687,415.4727 623.8433,415.6602 Q624.0151,415.8477 624.0151,416.2695 L624.0151,417.3008 Q624.0151,417.7227 623.8433,417.9102 Q623.687,418.0977 623.4214,418.0977 Q623.1714,418.0977 623.0308,417.957 Q622.8901,417.832 622.812,417.457 Q622.7808,417.207 622.6558,417.082 Q622.4058,416.8164 621.9683,416.6602 Q621.5464,416.5039 621.1089,416.5039 Q620.5776,416.5039 620.1245,416.7383 Q619.6714,416.9727 619.3276,417.5039 Q618.9839,418.0195 618.9839,418.7539 L618.9839,419.5352 Q618.9839,420.3945 619.6089,420.9727 Q620.2495,421.5508 621.3589,421.5508 Q622.0308,421.5508 622.4995,421.3789 Q622.7651,421.2695 623.062,420.957 Q623.2495,420.7695 623.3589,420.7227 Q623.4683,420.6602 623.5933,420.6602 Q623.8433,420.6602 624.0151,420.8477 Q624.2026,421.0195 624.2026,421.2695 Q624.2026,421.5195 623.9526,421.8008 Q623.5933,422.207 623.0308,422.4414 Q622.2808,422.7539 621.3745,422.7539 Q620.2964,422.7539 619.4526,422.3164 Q618.7495,421.9727 618.2651,421.207 Q617.7808,420.4414 617.7808,419.5508 L617.7808,418.7383 Q617.7808,417.8008 618.2183,416.9883 Q618.6558,416.1758 619.4214,415.7383 Q620.2026,415.3008 621.062,415.3008 Q621.5933,415.3008 622.0464,415.4258 Q622.4995,415.5352 622.8901,415.7852 Z " fill="#000000"/><text fill="#000000" font-family="Segoe UI" font-size="12" font-style="italic" lengthAdjust="spacing" textLength="52.0195" x="634.6694" y="415.5703">&#171;Jackson&#187;</text><text fill="#2B2B2B" font-family="'Segoe UI'" font-size="12" lengthAdjust="spacing" textLength="52.5469" x="634.4058" y="431.5313">JsonNode</text><line style="stroke:#2C6FBB;stroke-width:1.3;" x1="608.4058" x2="688.9526" y1="439.543" y2="439.543"/><line style="stroke:#2C6FBB;stroke-width:1.3;" x1="608.4058" x2="688.9526" y1="447.543" y2="447.543"/></g><g class="link" data-entity-1="ent0002" data-entity-2="ent0003" data-link-type="dependency" id="lnk12"><polygon fill="#44586B" points="160.3114,225.3758,169.6202,222.1592,163.9667,221.9642,164.1616,216.3107,160.3114,225.3758" style="stroke:#44586B;stroke-width:1;stroke-linejoin:miter;stroke-miterlimit:10;"/><path d="M260.7004,131.6794 C231.7208,158.7271 193.0078,194.8592 163.9667,221.9642" fill="none" style="stroke:#44586B;stroke-width:1;stroke-dasharray:7,7;"/><text fill="#5A6B7B" font-family="'Segoe UI'" font-size="11" lengthAdjust="spacing" textLength="16.645" x="241.9058" y="163.4912">use</text></g><g class="link" data-entity-1="ent0002" data-entity-2="ent0004" data-link-type="dependency" id="lnk13"><polygon fill="#44586B" points="292.9058,225.3758,296.9058,216.3758,292.9058,220.3758,288.9058,216.3758,292.9058,225.3758" style="stroke:#44586B;stroke-width:1;stroke-linejoin:miter;stroke-miterlimit:10;"/><path d="M292.9058,131.6794 C292.9058,158.7271 292.9058,193.2708 292.9058,220.3758" fill="none" style="stroke:#44586B;stroke-width:1;stroke-dasharray:7,7;"/><text fill="#5A6B7B" font-family="'Segoe UI'" font-size="11" lengthAdjust="spacing" textLength="16.645" x="294.9058" y="163.4912">use</text></g><g class="link" data-entity-1="ent0002" data-entity-2="ent0005" data-link-type="dependency" id="lnk14"><polygon fill="#44586B" points="429.2551,185.6123,423.6902,177.4863,424.998,182.9899,419.4944,184.2977,429.2551,185.6123" style="stroke:#44586B;stroke-width:1;stroke-linejoin:miter;stroke-miterlimit:10;"/><path d="M341.7018,131.6794 C366.7822,147.129 394.2241,164.0332 424.998,182.9899" fill="none" style="stroke:#44586B;stroke-width:1;stroke-dasharray:7,7;"/><text fill="#5A6B7B" font-family="'Segoe UI'" font-size="11" lengthAdjust="spacing" textLength="29.7344" x="396.9058" y="163.4912">create</text></g><g class="link" data-entity-1="ent0003" data-entity-2="ent0007" data-link-type="dependency" id="lnk15"><polygon fill="#44586B" points="170.3758,397.5224,171.589,387.7485,168.9234,392.738,163.9339,390.0724,170.3758,397.5224" style="stroke:#44586B;stroke-width:1;stroke-linejoin:miter;stroke-miterlimit:10;"/><path d="M137.0235,287.6561 C146.4784,318.8017 159.6917,362.3277 168.9234,392.738" fill="none" style="stroke:#44586B;stroke-width:1;stroke-dasharray:7,7;"/><text fill="#5A6B7B" font-family="'Segoe UI'" font-size="11" lengthAdjust="spacing" textLength="29.5786" x="161.9058" y="359.4912">return</text></g><g class="link" data-entity-1="ent0003" data-entity-2="ent0008" data-link-type="dependency" id="lnk16"><polygon fill="#44586B" points="265.3088,397.5224,261.8562,388.2985,261.8053,393.9551,256.1486,393.9042,265.3088,397.5224" style="stroke:#44586B;stroke-width:1;stroke-linejoin:miter;stroke-miterlimit:10;"/><path d="M157.4045,287.6561 C187.9938,318.8017 231.9381,363.5449 261.8053,393.9551" fill="none" style="stroke:#44586B;stroke-width:1;stroke-dasharray:7,7;"/></g><g class="link" data-entity-1="ent0004" data-entity-2="ent0008" data-link-type="dependency" id="lnk17"><polygon fill="#44586B" points="292.9058,397.5224,296.9058,388.5224,292.9058,392.5224,288.9058,388.5224,292.9058,397.5224" style="stroke:#44586B;stroke-width:1;stroke-linejoin:miter;stroke-miterlimit:10;"/><path d="M292.9058,287.6561 C292.9058,318.8017 292.9058,362.1121 292.9058,392.5224" fill="none" style="stroke:#44586B;stroke-width:1;stroke-dasharray:7,7;"/></g><g class="link" data-entity-1="ent0005" data-entity-2="ent0008" data-link-type="dependency" id="lnk18"><polygon fill="#44586B" points="321.852,397.5244,331.1982,394.4181,325.5474,394.1563,325.8092,388.5055,321.852,397.5244" style="stroke:#44586B;stroke-width:1;stroke-linejoin:miter;stroke-miterlimit:10;"/><path d="M418.2696,327.6978 C396.0095,341.5271 373.3986,356.4707 352.9058,371.6211 C342.3129,379.4524 335.105,385.4451 325.5474,394.1563" fill="none" style="stroke:#44586B;stroke-width:1;stroke-dasharray:7,7;"/></g><g class="link" data-entity-1="ent0005" data-entity-2="ent0009" data-link-type="aggregation" id="lnk19"><polygon fill="none" points="488.5273,327.8948,481.6919,330.1921,481.1835,337.3852,488.0189,335.088,488.5273,327.8948" style="stroke:#44586B;stroke-width:1;stroke-linejoin:miter;stroke-miterlimit:10;"/><polygon fill="#44586B" points="434.7015,397.4543,443.3728,392.7844,437.7614,393.5,437.0458,387.8886,434.7015,397.4543" style="stroke:#44586B;stroke-width:1;stroke-linejoin:miter;stroke-miterlimit:10;"/><path d="M481.1835,337.3852 C462.2586,361.8421 452.5027,374.4497 437.7614,393.5" fill="none" style="stroke:#44586B;stroke-width:1;"/><text fill="#5A6B7B" font-family="'Segoe UI'" font-size="11" lengthAdjust="spacing" textLength="32.189" x="475.9058" y="359.4912">injisert</text></g><g class="link" data-entity-1="ent0005" data-entity-2="ent0010" data-link-type="composition" id="lnk20"><polygon fill="#44586B" points="539.9777,327.8948,535.7314,333.7231,539.4781,339.8844,543.7244,334.0561,539.9777,327.8948" style="stroke:#44586B;stroke-width:1;stroke-linejoin:miter;stroke-miterlimit:10;"/><polygon fill="#44586B" points="537.0794,397.4543,541.4506,388.6287,537.2875,392.4587,533.4575,388.2956,537.0794,397.4543" style="stroke:#44586B;stroke-width:1;stroke-linejoin:miter;stroke-miterlimit:10;"/><path d="M539.4781,339.8844 C538.4591,364.3412 538.0813,373.4084 537.2875,392.4587" fill="none" style="stroke:#44586B;stroke-width:1;"/><text fill="#5A6B7B" font-family="'Segoe UI'" font-size="11" lengthAdjust="spacing" textLength="45.9873" x="540.9058" y="359.4912">oppretter</text></g><g class="link" data-entity-1="ent0005" data-entity-2="ent0011" data-link-type="dependency" id="lnk21"><polygon fill="#44586B" points="631.1339,397.4543,629.7143,387.7083,628.4658,393.2257,622.9484,391.9772,631.1339,397.4543" style="stroke:#44586B;stroke-width:1;stroke-linejoin:miter;stroke-miterlimit:10;"/><path d="M587.2451,327.8948 C602.6762,352.3516 616.446,374.1754 628.4658,393.2257" fill="none" style="stroke:#44586B;stroke-width:1;stroke-dasharray:7,7;"/><text fill="#5A6B7B" font-family="'Segoe UI'" font-size="11" lengthAdjust="spacing" textLength="29.5786" x="609.9058" y="359.4912">return</text></g><g class="legend" data-source-line="82"><rect fill="none" height="28.6211" rx="4" ry="4" style="stroke:#000000;stroke-width:1;" width="718.8115" x="12" y="477.6211"/><text fill="#000000" font-family="'Segoe UI'" font-size="14" lengthAdjust="spacing" textLength="708.8115" x="17" y="497.7285">Token er en statisk hjelpeklasse som internt bruker HttpClient + ObjectMapper/JsonNode for &#229; hente access token.</text></g><?plantuml-src VLNDSjis4BxpARRA8N8JoP7YAAd6zemeMqsSEccYP7hez02IQmeY2300g4JEk6_JKnyXj-J5kY1f2PIjKZCQSVVRRx_z0VGGvZbQ9XcSmE-2IVlnyZS3N4gCrcc28DXQbRQNAwiqT3EDAzJ0impXLysAnOfV7oRA7lI3dmhDqfmr0M1grY2mt0g4Su6PrJn3RPSeqLYKq8FNWXc3kKfGY20m6PS5qoo7YCLPgbKfawaIbFV1h7eyX5cmH7tcCeKh9WnwdjXnJYmbYqgBhs8bv_mQuOa7ESChLWexKzA-OJb2PuwfGlZugdC_g28O33rdeqrBQiOBp_w6IZ5Om96VxZsJcJEEdWIxEk5h013UgVRvBAHgoQDqWhgn3gUZMHXkh1yMFCweamO6_QTaVOcCh7UupaRdezc4_AwGnZO8X-5JPzkqoNCEG_S9RZof1P6o5FU83UaptHKR_Z8TJgVjjCz6ey4eR6npkwQrA0JZifLhehNwt0GS7JrxGG4xJfznCWgVtmkeHpO8Wblj7QNJFdvXUI6m0ym0Vg5wI4mzXqlIKTK7y0Y-6iiiZsyW9skNwTJ06ERKAfd--TS1_LufdX3sPXi_kIurJWL7QU_If4Y2wKJ5bYlPTGJRrpRD1vNXhOw_MmILfugjXRJZYCzgHeGo_KFfpBIKz61XRT6Onl1oyz9uRPNK8tP6b4cXU1NGigjeIS8lML7Gwe_XhVTQ8tfDzVTBwkwHydX7nK73OaZ7knBrkll9VM_yZs75D6UHGBDHuPfpOPHqXx1gpuqt_lECxXmwhn3nI71baQuYE8IBizUTgasRFZPpeUp7nqksOdtpIPoURX1d52fNK3_7nqdrsdD03xIjQqiZqVPTyHxCRnx1BaWhoVS0jzKqoRO0gkmXd9oSm7iau5AvUoYdIrJbW2aLcLKNgtQGe5hjVl-qjQFUCuRl_vO6lt_R8kirlFFSWzopU0uPQsJMWHkfvxwmtYdWxKJikcYa-WeRzkqu6W4QRQabqUw2wya4GItUj-mHwK7s85IFTBQ6EQQ_nYMd2ko-c9zTpDlsAL55GRAfsl-JqXfskzH0O4e70I9bhSffFUeQYPk-gql2PB1OeYYmRZ0OsWGwlTHV2v4ktR9xTJng2JpSPBwYI_N7Fx0W30ABO_VlKftBVa3fQn71Vm00?></g></svg>